<?xml version="1.0" encoding="UTF-8"?>
<svg width="102px" height="169px" viewBox="0 0 102 169" version="1.1" xmlns="http://www.w3.org/2000/svg" xmlns:xlink="http://www.w3.org/1999/xlink">
    <!-- Generator: Sketch 52.4 (67378) - http://www.bohemiancoding.com/sketch -->
    <title>hero-animation-01</title>
    <desc>Created with Sketch.</desc>
    <g id="Page-1" stroke="none" stroke-width="1" fill="none" fill-rule="evenodd">
        <g id="hero-animation-01">
            <polygon id="Path" fill="#D6D8E5" opacity="0.3" points="38.3376623 157.498701 18.3168831 145.890909 38.3376623 134.38961 58.3584416 145.890909"></polygon>
            <polygon id="Path" fill="#D6D8E5" opacity="0.3" points="70.0727273 138.968831 50.0519481 127.467532 70.0727273 115.85974 89.987013 127.467532"></polygon>
            <polygon id="Path" fill="#8C50FF" points="81.8935065 28.4285714 61.8727273 16.9272727 81.8935065 5.31948052 101.914286 16.9272727"></polygon>
            <polygon id="Path" fill="#8C50FF" points="81.8935065 132.25974 61.8727273 120.758442 61.8727273 16.9272727 81.8935065 28.4285714"></polygon>
            <polygon id="Path" fill="#000000" opacity="0.1" points="81.8935065 132.25974 61.8727273 120.758442 61.8727273 16.9272727 81.8935065 28.4285714"></polygon>
            <polygon id="Path" fill="#8C50FF" points="101.914286 120.758442 81.8935065 132.25974 81.8935065 28.4285714 101.914286 16.9272727"></polygon>
            <polygon id="Path" fill="#000000" opacity="0.15" points="101.914286 120.758442 81.8935065 132.25974 81.8935065 28.4285714 101.914286 16.9272727"></polygon>
            <polygon id="Path" fill="#E9EAF2" points="51.8623377 80.3974026 31.9480519 68.7896104 51.8623377 57.2883117 71.8831169 68.7896104"></polygon>
            <polygon id="Path" fill="#E9EAF2" points="51.8623377 149.511688 31.9480519 138.01039 31.9480519 68.7896104 51.8623377 80.3974026"></polygon>
            <polygon id="Path" fill="#000000" opacity="0.1" points="51.8623377 149.511688 31.9480519 138.01039 31.9480519 68.7896104 51.8623377 80.3974026"></polygon>
            <polygon id="Path" fill="#E9EAF2" points="71.8831169 138.01039 51.8623377 149.511688 51.8623377 80.3974026 71.8831169 68.7896104"></polygon>
            <polygon id="Path" fill="#000000" opacity="0.15" points="71.8831169 138.01039 51.8623377 149.511688 51.8623377 80.3974026 71.8831169 68.7896104"></polygon>
            <polygon id="Path" fill="#8C50FF" points="20.0207792 135.135065 0 123.633766 20.0207792 112.132468 39.9350649 123.633766"></polygon>
            <polygon id="Path" fill="#8C50FF" points="20.0207792 168.254545 0 156.753247 0 123.633766 20.0207792 135.135065"></polygon>
            <polygon id="Path" fill="#000000" opacity="0.1" points="20.0207792 168.254545 0 156.753247 0 123.633766 20.0207792 135.135065"></polygon>
            <polygon id="Path" fill="#8C50FF" points="39.9350649 156.753247 20.0207792 168.254545 20.0207792 135.135065 39.9350649 123.633766"></polygon>
            <polygon id="Path" fill="#000000" opacity="0.15" points="39.9350649 156.753247 20.0207792 168.254545 20.0207792 135.135065 39.9350649 123.633766"></polygon>
            <g id="Men_11-Copy" transform="translate(31.623377, 55.064935)">
                <path d="M19.4935065,49.5064935 C20.8779221,50.6779221 23.0077922,49.612987 23.1142857,49.7194805 C24.8181818,51.3168831 26.5220779,52.7012987 28.3324675,54.0857143 C29.1844156,54.7246753 30.5688312,55.6831169 30.3558442,57.0675325 C29.9298701,59.5168831 26.0961039,58.7714286 24.6051948,58.025974 C23.1142857,57.2805195 21.9428571,56.1090909 20.5584416,55.2571429 C19.6,54.6181818 18.6415584,54.2987013 18.4285714,53.1272727 C18.5350649,52.3818182 19.2805195,49.5064935 19.4935065,49.5064935 Z" id="Path" fill="#38226D"></path>
                <path d="M18.6415584,52.5948052 C18.8545455,53.7662338 19.812987,54.0857143 20.7714286,54.7246753 C22.1558442,55.5766234 23.4337662,56.8545455 24.8181818,57.6 C26.2025974,58.3454545 29.5038961,58.9844156 30.4623377,57.2805195 C29.9298701,59.6233766 26.2025974,58.8779221 24.7116883,58.1324675 C23.2207792,57.387013 22.0493506,56.2155844 20.6649351,55.3636364 C19.7064935,54.7246753 18.7480519,54.4051948 18.5350649,53.2337662 C18.5350649,52.9142857 18.6415584,52.7012987 18.6415584,52.5948052 Z" id="Path" fill="#9C73FF"></path>
                <path d="M33.9766234,41.2 C35.361039,42.3714286 37.9168831,41.0935065 38.0233766,41.2 C39.5142857,42.6909091 41.1116883,44.1818182 42.7090909,45.4597403 C43.561039,46.2051948 44.9454545,47.0571429 44.7324675,48.4415584 C44.3064935,50.8909091 40.4727273,50.1454545 38.9818182,49.4 C37.4909091,48.6545455 36.3194805,47.4831169 34.9350649,46.6311688 C33.9766234,45.9922078 33.0181818,45.6727273 32.8051948,44.5012987 C32.9116883,43.2233766 33.3376623,42.1584416 33.9766234,41.2 Z" id="Path" fill="#38226D"></path>
                <path d="M32.9116883,44.0753247 C33.1246753,45.2467532 34.0831169,45.5662338 35.0415584,46.2051948 C36.425974,47.0571429 37.7038961,48.3350649 39.0883117,49.0805195 C40.4727273,49.825974 43.774026,50.4649351 44.7324675,48.761039 C44.2,51.1038961 40.4727273,50.3584416 38.9818182,49.612987 C37.4909091,48.8675325 36.3194805,47.6961039 34.9350649,46.8441558 C33.9766234,46.2051948 33.0181818,45.8857143 32.8051948,44.7142857 C32.9116883,44.3948052 32.9116883,44.1818182 32.9116883,44.0753247 Z" id="Path" fill="#9C73FF"></path>
                <path d="M0.431168831,3.82077922 C-1.16623377,13.7246753 3.2,17.3454545 8.95064935,19.4753247 C12.9974026,20.9662338 18.8545455,23.3090909 18.8545455,23.3090909 C18.8545455,23.3090909 18.7480519,25.438961 18.7480519,30.3376623 C18.7480519,34.5974026 19.2805195,50.2519481 19.2805195,50.2519481 C20.6649351,50.9974026 22.2623377,50.9974026 23.6467532,50.2519481 C23.6467532,50.2519481 25.9896104,38.3246753 26.4155844,32.8935065 C27.0545455,25.5454545 28.225974,20.7532468 27.8,19.1558442 C27.4805195,17.7714286 19.4935065,13.8311688 16.9376623,11.7012987 L33.7636364,17.3454545 C33.4441558,19.1558442 33.3376623,20.9662338 33.3376623,22.8831169 C33.4441558,28.6337662 33.7636364,41.3064935 33.7636364,41.3064935 C33.7636364,41.3064935 36.1064935,43.0103896 38.0233766,41.3064935 C38.0233766,41.3064935 42.2831169,16.387013 41.7506494,13.0857143 C41.2181818,9.9974026 26.5220779,3.60779221 23.8597403,1.37142857 C22.9012987,0.625974026 21.7298701,0.306493506 20.5584416,0.519480519 L0.431168831,3.82077922 Z" id="_Контур_16" fill="#8C50FF"></path>
            </g>
            <g id="11" transform="translate(25.000000, 0.000000)">
                <path d="M13.5068085,25.3269589 L10.9714038,25.8741295 C8.01523757,26.4393586 5.77779714,27.3106782 4.15795528,28.1531044 C1.96024341,29.2953005 1.33542147,30.5079246 0.98237901,32.9593575 C0.442431723,36.7028717 -0.337692785,43.4368631 1.76611521,51.5812185 L7.30373512,45.8169652 L9.55020477,52.8606588 C9.55020477,52.8606588 5.8382929,62.2709107 5.66041729,65.4473899 C10.9027818,58.9580903 28.4664182,55.5558806 28.4664182,55.5558806 L26.8212946,50.7848414 L27.3874266,49.263418 L31.2492235,48.3975159 C33.5065282,40.3461615 31.4000114,29.1309688 29.1427067,27.3549214 C26.5233304,25.2953566 19.8073974,25.2086761 19.8073974,25.2086761 L13.5068085,25.3269589" id="Fill-96" fill="#F4F4F4"></path>
                <polyline id="Fill-97" fill="#F4F4F4" points="16.6056364 53.7039878 9.55020477 52.8606588 7.82742982 47.4584772 16.6056364 53.7039878"></polyline>
                <path d="M23.671903,50.141961 C25.0335092,46.5952838 26.5657677,36.3516351 26.5657677,36.3516351 C25.7558468,42.9700525 25.8316922,48.3704283 25.8316922,48.3704283 L23.671903,50.141961" id="Fill-98" fill="#F4F4F4"></path>
                <path d="M25.8316922,48.3704283 C25.8316922,48.3704283 23.3432395,49.3347488 21.6177558,50.141961 C16.4404017,52.5672092 10.1470361,56.4262973 10.1470361,56.4262973 L5.69563125,60.3269199 C5.43107513,60.5589708 5.25590829,60.8795081 5.21979141,61.2298417 C5.15026643,61.8916835 4.9344681,63.1079193 4.76742755,64.0027148 C4.63650388,64.7015764 4.84327299,65.4212051 5.32814204,65.9412881 L5.4708037,66.0956878 L11.5312154,60.4235325 C11.5312154,60.4235325 11.8138299,58.6411647 13.4490215,58.3043748 C17.3532557,57.4998714 24.5992038,55.0592736 29.1427067,53.1848078 C30.8465203,51.737424 31.2492235,48.3975159 31.2492235,48.3975159 L25.8316922,48.3704283" id="Fill-99" fill="#F1C099"></path>
                <path d="M6.92902254,46.4156024 C6.92902254,46.4156024 6.92902254,46.3424657 6.92811962,46.2079304 L6.98680954,46.1474346 C6.94978974,46.3207956 6.92902254,46.4156024 6.92902254,46.4156024" id="Fill-102" fill="#F6F6F4"></path>
                <path d="M6.92811962,46.2079304 C6.92270209,45.0178793 6.88116768,39.0242838 6.61029112,36.7128038 C6.30961813,34.1421852 5.17554824,30.896181 5.17554824,30.896181 C5.17554824,30.896181 7.50689255,32.5792274 7.87889636,36.5538896 C8.20394824,40.0247213 7.2369189,44.9528689 6.98680954,46.1474346 L6.92811962,46.2079304" id="Fill-103" fill="#F4F4F4"></path>
                <path d="M22.2425777,5.26132582 C21.2394315,3.40311258 19.2403624,0.0902921884 15.6476363,1.02030173 C-4.77735969,-2.0216421 7.49876625,30.6325278 7.49876625,30.6325278 L19.0904774,20.817767 C23.9337504,17.188021 25.1156751,10.587662 22.2425777,5.26132582" id="Fill-107" fill="#3A2C6D"></path>
                <path d="M7.49876625,30.6325278 C7.49876625,30.6325278 2.04421515,6.76739952 14.7754137,6.76739952 C15.2377097,6.76739952 15.7261905,6.79900179 16.2372442,6.86491509 C16.0160284,12.0612305 7.49876625,30.6325278 7.49876625,30.6325278" id="Fill-108" fill="#3A2C6D"></path>
                <path d="M20.6155125,23.1500142 L20.1487018,18.9694859 L13.778588,18.52886 L12.6752174,23.6005722 C12.6029837,23.9310416 12.4856038,24.2443555 12.3293983,24.5350964 L10.8567327,27.7883239 C14.1045428,31.5643432 20.4024229,31.1733781 22.9974204,26.5260391 L23.1816165,26.1964726 C21.7893109,25.7919636 20.7762326,24.5901746 20.6155125,23.1500142" id="Fill-109" fill="#F1C099"></path>
                <polyline id="Fill-110" fill="#F8F2EB" points="20.5351524 22.4303855 20.2453145 19.8308733 20.5351524 22.4303855"></polyline>
                <path d="M12.4865067,24.2019182 C12.4856038,24.2010153 12.483798,24.1992094 12.4819921,24.1983065 C12.5614493,24.0059841 12.6300713,23.8073413 12.6752174,23.6005722 C12.6300713,23.8082442 12.5659639,24.0095958 12.4865067,24.2019182" id="Fill-111" fill="#DB5D3E"></path>
                <path d="M15.8796872,25.8271776 C15.7018116,25.8271776 15.523936,25.8000899 15.3514779,25.7459146 C14.2932534,25.4091247 13.3253212,24.8809154 12.4865067,24.2019182 C12.5659639,24.0095958 12.6300713,23.8082442 12.6752174,23.6005722 L13.778588,18.52886 L18.6498515,18.8656499 C18.9180193,20.0719535 19.0904774,20.817767 19.0904774,20.817767 C19.5013069,20.5089677 19.8868545,20.1794012 20.2453145,19.8308733 L20.5351524,22.4303855 C19.6132692,23.7125345 18.4412766,24.8095846 17.2060794,25.4154452 C17.0236892,25.5057374 16.749201,25.6167968 16.5008974,25.7125065 C16.3013517,25.7892549 16.0909709,25.8271776 15.8796872,25.8271776" id="Fill-112" fill="#E7B58F"></path>
                <path d="M20.2453145,19.8308733 L20.1487018,18.9694859 L18.6498515,18.8656499 C17.6755988,14.482867 15.442673,4.01077901 15.6476363,1.02030173 C16.0756212,0.909242338 16.4810332,0.858678712 16.864775,0.858678712 C19.7026584,0.858678712 21.3586172,3.62432844 22.2425777,5.26132582 C23.2809379,7.18545236 23.7892829,9.27661944 23.787477,11.3334755 C23.7838654,14.4864787 22.5811734,17.5591219 20.2453145,19.8308733" id="Fill-113" fill="#3A2C6D"></path>
                <polyline id="Fill-114" fill="#C75639" points="20.2453145 19.8308733 20.1487018 18.9694859 20.2453145 19.8308733"></polyline>
                <path d="M19.0904774,20.817767 C19.0904774,20.817767 18.9180193,20.0719535 18.6498515,18.8656499 L20.1487018,18.9694859 L20.2453145,19.8308733 C19.8868545,20.1794012 19.5013069,20.5089677 19.0904774,20.817767" id="Fill-115" fill="#CFA482"></path>
                <path d="M16.6128597,24.0926646 C17.0065337,24.1179465 17.3965959,24.0095958 17.719842,23.7838654 C17.9383491,23.6312716 18.1776234,23.4570076 18.3338289,23.326084 C20.0557009,21.8759914 21.2990243,19.1979251 21.5870564,16.7681623 C21.6737369,16.0358927 21.5726097,15.2936909 21.3188886,14.6002469 L20.6290563,12.7131401 C20.4954239,11.6440806 20.6353767,10.2165611 19.777601,9.5637486 L16.2372442,6.86491509 L11.3470193,13.4020695 C10.9975886,13.7840055 10.714974,14.2110875 10.5027874,14.6670631 C9.83281932,16.1090293 8.64818581,18.0683698 9.42560155,19.4543549 L9.52492296,19.6304247 C10.9786272,22.2218105 13.6467614,23.9021481 16.6128597,24.0926646" id="Fill-116" fill="#F1C099"></path>
                <path d="M21.4019574,37.4098595 L15.9934553,38.3886268 C15.8002301,38.4238408 15.6151311,38.294723 15.5799171,38.1005948 L13.7054513,27.7404691 C13.6702373,27.5463408 13.7984522,27.3612419 13.9925804,27.3260279 L19.4010825,26.3472606 C19.5943078,26.3129496 19.7794068,26.4402615 19.8146208,26.6343897 L21.6890866,36.9954184 C21.7243005,37.1895466 21.5960856,37.3746456 21.4019574,37.4098595" id="Fill-117" fill="#FFFFFE"></path>
                <path d="M21.5590658,38.2766645 L16.1514667,39.2554318 C15.9573385,39.2906458 15.7722395,39.161528 15.7370255,38.9673998 L13.8625597,28.6072741 C13.8273457,28.4140488 13.9555606,28.2280469 14.1487859,28.1937358 L19.557288,27.2149685 C19.7514162,27.1797546 19.9365152,27.3079695 19.9717292,27.5011948 L21.846195,37.8631263 C21.8814089,38.0563516 21.753194,38.2423535 21.5590658,38.2766645" id="Fill-118" fill="#3C3D3A"></path>
                <path d="M21.8272336,33.9625038 C21.6701252,33.7891428 21.5437162,33.405401 21.6204645,33.1841851 C21.8236219,32.5900625 21.5328811,32.0347655 20.8728452,32.2966129 C20.0340308,32.7552972 19.788436,33.3891484 19.6430656,32.9087939 C20.5947453,32.2577872 21.3270149,31.6447033 21.3622289,31.3756326 C21.4696766,30.5566824 20.5604342,30.7219171 20.5604342,30.7219171 C20.5604342,30.7219171 17.0570973,33.5805678 16.1225732,33.6681512 C14.992115,33.7719872 14.7636757,31.7024903 14.7636757,31.7024903 C14.7058887,31.3151368 14.5885089,30.9350067 14.3898661,30.5973139 C13.9591723,29.8659472 13.4878471,29.8460829 13.1600865,29.9228312 C12.7817622,30.0095117 13.4697887,31.6257419 13.4923617,32.1819418 L13.8255399,35.092059 C13.8255399,35.092059 14.0621054,37.0252148 14.0332119,38.3768888 C14.0250856,38.7543102 5.27396673,45.4395438 2.79905784,48.0219004 C0.323246035,50.6033541 2.46407382,54.1355845 4.04509004,54.2412264 C4.47578378,54.2692169 7.61795194,51.8457746 9.16826881,50.1464756 C12.6409064,46.338854 13.1032024,44.1384334 17.2530314,40.1357807 C18.0169033,39.6274357 19.8299704,38.1394204 20.8647189,37.4170829 C21.6484551,36.8708151 22.3807247,35.5444229 22.1568001,35.3421684 C21.973507,35.1769337 21.8777973,34.999961 21.9518369,34.7652013 C22.0637992,34.4040326 22.0240706,34.1810109 21.8272336,33.9625038" id="Fill-119" fill="#F1C099"></path>
                <path d="M14.5930235,29.3386408 C14.6372667,29.5869443 14.8747351,29.7512761 15.1230386,29.70613 C15.3713422,29.6618868 15.5365769,29.4244184 15.4914308,29.1761148 C15.4462847,28.9278113 15.2088162,28.7625766 14.9605127,28.8077227 C14.7122092,28.8528688 14.5478774,29.0903373 14.5930235,29.3386408" id="Fill-120" fill="#D3D5D2"></path>
            </g>
        </g>
    </g>
</svg>